<svg viewBox="0 0 16 16" fill="none" xmlns="http://www.w3.org/2000/svg">
<path fill-rule="evenodd" clip-rule="evenodd" d="M12.416 3.37576C12.5815 3.4861 12.6963 3.65765 12.7353 3.85269C12.7743 4.04772 12.7343 4.25026 12.624 4.41576L7.62397 11.9158C7.56239 12.008 7.48111 12.0854 7.386 12.1425C7.29089 12.1995 7.18431 12.2348 7.07393 12.2457C6.96356 12.2566 6.85214 12.2429 6.7477 12.2055C6.64326 12.1682 6.54841 12.1082 6.46997 12.0298L3.46997 9.02976C3.33749 8.88758 3.26537 8.69954 3.26879 8.50524C3.27222 8.31094 3.35093 8.12555 3.48835 7.98814C3.62576 7.85073 3.81114 7.77201 4.00545 7.76859C4.19975 7.76516 4.38779 7.83728 4.52997 7.96976L6.88297 10.3228L11.376 3.58276C11.4865 3.41744 11.6581 3.30276 11.8531 3.26394C12.0481 3.22513 12.2506 3.26535 12.416 3.37576Z" fill="black"/>
</svg>
