<svg  viewBox="0 0 16 16" xmlns="http://www.w3.org/2000/svg">
<path d="M12.2426 10.3573L11.2999 9.41333L12.2426 8.47066C12.8632 7.8446 13.2105 6.99821 13.2086 6.11668C13.2067 5.23516 12.8556 4.39029 12.2323 3.76696C11.609 3.14363 10.7641 2.79259 9.88257 2.79066C9.00105 2.78873 8.15465 3.13606 7.52859 3.75666L6.58526 4.69999L5.64259 3.75733L6.58526 2.81466C7.46047 1.93944 8.64752 1.44775 9.88526 1.44775C11.123 1.44775 12.31 1.93944 13.1853 2.81466C14.0605 3.68987 14.5522 4.87692 14.5522 6.11466C14.5522 7.3524 14.0605 8.53944 13.1853 9.41466L12.2426 10.3573ZM10.3566 12.2427L9.41393 13.1853C8.53871 14.0605 7.35167 14.5522 6.11393 14.5522C4.87619 14.5522 3.68914 14.0605 2.81393 13.1853C1.93871 12.3101 1.44702 11.1231 1.44702 9.88533C1.44702 8.64759 1.93871 7.46054 2.81393 6.58533L3.75726 5.64266L4.69993 6.58666L3.75726 7.52933C3.14517 8.15704 2.80504 9.00062 2.81053 9.87734C2.81602 10.7541 3.1667 11.5933 3.78661 12.2133C4.40651 12.8333 5.24572 13.1841 6.12244 13.1897C6.99916 13.1953 7.8428 12.8553 8.47059 12.2433L9.41393 11.3007L10.3566 12.2427ZM9.88526 5.17133L10.8286 6.11466L6.11393 10.828L5.17126 9.88533L9.88526 5.17133Z" fill="black"/>
</svg>
