<svg width="24" height="24" viewBox="0 0 46 46" fill="none" xmlns="http://www.w3.org/2000/svg">
<path fill-rule="evenodd" clip-rule="evenodd" d="M38.8891 13.4176L28.2325 5.5401C25.1153 3.26442 20.8847 3.26442 17.7675 5.5401L7.12998 13.4176C5.07041 14.9014 3.84501 17.2809 3.83331 19.8193V34.0601C3.94836 38.6472 7.75605 42.2748 12.3433 42.1676H33.6566C38.2439 42.2748 42.0516 38.6472 42.1666 34.0601V19.8001C42.1502 17.2727 40.9336 14.9036 38.8891 13.4176ZM39.2916 34.0601C39.1773 37.0596 36.6564 39.4005 33.6567 39.2926H12.3433C9.34752 39.3898 6.83294 37.0549 6.70831 34.0601V19.8193C6.71854 18.1899 7.50981 16.6644 8.83581 15.7176L19.4733 7.85927C21.5742 6.32512 24.4258 6.32512 26.5267 7.85927L37.1641 15.7368C38.489 16.6672 39.2818 18.1812 39.2916 19.8001V34.0601ZM14.375 30.1884H31.625C32.4189 30.1884 33.0625 30.832 33.0625 31.6259C33.0625 32.4199 32.4189 33.0634 31.625 33.0634H14.375C13.5811 33.0634 12.9375 32.4199 12.9375 31.6259C12.9375 30.832 13.5811 30.1884 14.375 30.1884Z" fill="white"/>
</svg>
