<svg xmlns="http://www.w3.org/2000/svg" xmlns:xlink="http://www.w3.org/1999/xlink" viewBox="0,0,256,256" width="20px" height="20px"><g fill="#1e9cf1" fill-rule="nonzero" stroke="none" stroke-width="1" stroke-linecap="butt" stroke-linejoin="miter" stroke-miterlimit="10" stroke-dasharray="" stroke-dashoffset="0" font-family="none" font-weight="none" font-size="none" text-anchor="none" style="mix-blend-mode: normal"><g transform="scale(5.33333,5.33333)"><path d="M11.5,6c-3.01977,0 -5.5,2.48023 -5.5,5.5v25c0,3.01977 2.48023,5.5 5.5,5.5h25c3.01977,0 5.5,-2.48023 5.5,-5.5v-25c0,-3.01977 -2.48023,-5.5 -5.5,-5.5zM11.5,9h25c1.39823,0 2.5,1.10177 2.5,2.5v25c0,0.13261 -0.01993,0.26013 -0.03906,0.38672l-12.14648,-11.75195c-0.77859,-0.75335 -1.79698,-1.12891 -2.81445,-1.12891c-1.01748,0 -2.03391,0.37556 -2.8125,1.12891l-12.14844,11.75195c-0.01913,-0.12659 -0.03906,-0.25411 -0.03906,-0.38672v-25c0,-1.39823 1.10177,-2.5 2.5,-2.5zM30.5,13c-1.375,0 -2.59618,0.56963 -3.37109,1.44141c-0.77491,0.87177 -1.12891,1.97526 -1.12891,3.05859c0,1.08333 0.354,2.18682 1.12891,3.05859c0.77491,0.87177 1.99609,1.44141 3.37109,1.44141c1.375,0 2.59618,-0.56963 3.37109,-1.44141c0.77491,-0.87177 1.12891,-1.97526 1.12891,-3.05859c0,-1.08333 -0.354,-2.18682 -1.12891,-3.05859c-0.77491,-0.87177 -1.99609,-1.44141 -3.37109,-1.44141zM30.5,16c0.625,0 0.90382,0.18037 1.12891,0.43359c0.22509,0.25323 0.37109,0.64974 0.37109,1.06641c0,0.41667 -0.146,0.81318 -0.37109,1.06641c-0.22509,0.25323 -0.50391,0.43359 -1.12891,0.43359c-0.625,0 -0.90382,-0.18037 -1.12891,-0.43359c-0.22509,-0.25323 -0.37109,-0.64974 -0.37109,-1.06641c0,-0.41667 0.146,-0.81318 0.37109,-1.06641c0.22509,-0.25323 0.50391,-0.43359 1.12891,-0.43359zM24.00195,26.98828c0.25956,0 0.51815,0.10108 0.72656,0.30273l12.07227,11.67969c-0.09956,0.01166 -0.19768,0.0293 -0.30078,0.0293h-25c-0.1031,0 -0.20123,-0.01764 -0.30078,-0.0293l12.07422,-11.67969c0.20841,-0.20165 0.46895,-0.30273 0.72852,-0.30273z"></path></g></g></svg>