<svg viewBox="0 0 16 16" fill="none" xmlns="http://www.w3.org/2000/svg">
<path d="M14.4713 7.52877L9.13792 2.19544C9.04468 2.10223 8.92591 2.03876 8.79661 2.01305C8.6673 1.98733 8.53328 2.00054 8.41148 2.05098C8.28968 2.10143 8.18557 2.18686 8.11232 2.29646C8.03906 2.40607 7.99995 2.53494 7.99992 2.66677V5.0301C6.17878 5.19863 4.48607 6.04068 3.25305 7.39145C2.02002 8.74223 1.33543 10.5045 1.33325 12.3334V13.3334C1.33336 13.4718 1.37653 13.6067 1.45677 13.7195C1.53701 13.8322 1.65035 13.9172 1.78107 13.9627C1.91179 14.0081 2.0534 14.0117 2.18627 13.973C2.31914 13.9343 2.43668 13.8553 2.52259 13.7468C3.17572 12.9701 3.97709 12.3313 4.87988 11.8679C5.78267 11.4044 6.76878 11.1255 7.78059 11.0474C7.81392 11.0434 7.89725 11.0368 7.99992 11.0301V13.3334C7.99995 13.4653 8.03906 13.5941 8.11232 13.7037C8.18557 13.8133 8.28968 13.8988 8.41148 13.9492C8.53328 13.9997 8.6673 14.0129 8.79661 13.9872C8.92591 13.9614 9.04468 13.898 9.13792 13.8048L14.4713 8.47144C14.5962 8.34642 14.6664 8.17688 14.6664 8.0001C14.6664 7.82333 14.5962 7.65379 14.4713 7.52877ZM9.33325 11.7241V10.3334C9.33325 10.1566 9.26301 9.98706 9.13799 9.86203C9.01297 9.73701 8.8434 9.66677 8.66659 9.66677C8.49659 9.66677 7.80259 9.7001 7.62525 9.72344C5.82849 9.88899 4.1182 10.5716 2.70125 11.6888C2.86208 10.2184 3.55961 8.859 4.66029 7.87088C5.76096 6.88275 7.18744 6.33533 8.66659 6.33344C8.8434 6.33344 9.01297 6.2632 9.13799 6.13817C9.26301 6.01315 9.33325 5.84358 9.33325 5.66677V4.2761L13.0573 8.0001L9.33325 11.7241Z" fill="black"/>
</svg>
