<svg  viewBox="0 0 16 16" fill="none" xmlns="http://www.w3.org/2000/svg">
<path d="M8.74672 11.3487L5.94739 9.82206C5.58192 10.2128 5.10738 10.4845 4.58544 10.602C4.0635 10.7195 3.51829 10.6772 3.02067 10.4807C2.52305 10.2843 2.09603 9.94269 1.7951 9.50035C1.49417 9.05801 1.33325 8.53539 1.33325 8.00039C1.33325 7.46539 1.49417 6.94277 1.7951 6.50043C2.09603 6.05809 2.52305 5.71649 3.02067 5.52003C3.51829 5.32357 4.0635 5.28133 4.58544 5.3988C5.10738 5.51627 5.58192 5.78801 5.94739 6.17872L8.74739 4.65206C8.58866 4.0227 8.66492 3.35705 8.96187 2.7799C9.25882 2.20275 9.75608 1.75371 10.3604 1.51697C10.9648 1.28022 11.6347 1.27202 12.2447 1.49391C12.8546 1.71579 13.3627 2.15252 13.6737 2.72223C13.9847 3.29194 14.0772 3.95552 13.934 4.58858C13.7907 5.22163 13.4214 5.78069 12.8954 6.16097C12.3694 6.54125 11.7228 6.71663 11.0767 6.65424C10.4307 6.59184 9.82956 6.29596 9.38606 5.82206L6.58606 7.34872C6.69352 7.7763 6.69352 8.22382 6.58606 8.65139L9.38606 10.1781C9.82979 9.70438 10.431 9.4088 11.0771 9.34673C11.7232 9.28465 12.3697 9.46033 12.8955 9.84085C13.4214 10.2214 13.7903 10.7806 13.9333 11.4137C14.0763 12.0468 13.9835 12.7103 13.6723 13.2799C13.361 13.8494 12.8528 14.2859 12.2427 14.5076C11.6327 14.7292 10.9627 14.7207 10.3585 14.4837C9.75426 14.2467 9.2572 13.7975 8.96048 13.2203C8.66376 12.643 8.58776 11.9773 8.74672 11.3481M4.00006 9.33339C4.35368 9.33339 4.69282 9.19291 4.94287 8.94286C5.19291 8.69282 5.33339 8.35368 5.33339 8.00006C5.33339 7.64643 5.19291 7.3073 4.94287 7.05725C4.69282 6.8072 4.35368 6.66672 4.00006 6.66672C3.64643 6.66672 3.3073 6.8072 3.05725 7.05725C2.8072 7.3073 2.66672 7.64643 2.66672 8.00006C2.66672 8.35368 2.8072 8.69282 3.05725 8.94286C3.3073 9.19291 3.64643 9.33339 4.00006 9.33339ZM11.3334 5.33339C11.687 5.33339 12.0261 5.19291 12.2762 4.94287C12.5262 4.69282 12.6667 4.35368 12.6667 4.00006C12.6667 3.64643 12.5262 3.3073 12.2762 3.05725C12.0261 2.8072 11.687 2.66672 11.3334 2.66672C10.9798 2.66672 10.6406 2.8072 10.3906 3.05725C10.1405 3.3073 10.0001 3.64643 10.0001 4.00006C10.0001 4.35368 10.1405 4.69282 10.3906 4.94287C10.6406 5.19291 10.9798 5.33339 11.3334 5.33339ZM11.3334 13.3334C11.687 13.3334 12.0261 13.1929 12.2762 12.9429C12.5262 12.6928 12.6667 12.3537 12.6667 12.0001C12.6667 11.6464 12.5262 11.3073 12.2762 11.0572C12.0261 10.8072 11.687 10.6667 11.3334 10.6667C10.9798 10.6667 10.6406 10.8072 10.3906 11.0572C10.1405 11.3073 10.0001 11.6464 10.0001 12.0001C10.0001 12.3537 10.1405 12.6928 10.3906 12.9429C10.6406 13.1929 10.9798 13.3334 11.3334 13.3334Z" fill="black"/>
</svg>
